<?xml version="1.0" standalone="no"?>
<svg
  width="600"
  height="600"
  viewBox="0 0 600 600"
  xmlns="http://www.w3.org/2000/svg"
>
  <g transform="translate(300,300)">
    <path d="M171.7,-180.8C218.4,-165.6,249,-107.4,249.8,-51.7C250.5,4.1,221.4,57.6,180.7,81.9C139.9,106.3,87.6,101.5,49.1,100.6C10.7,99.6,-13.8,102.4,-56.5,107.5C-99.1,112.7,-160,120.1,-190.2,96.1C-220.4,72.1,-220,16.7,-209.8,-36.2C-199.5,-89.1,-179.5,-139.6,-142.9,-156.6C-106.3,-173.7,-53.1,-157.3,4.7,-162.9C62.6,-168.6,125.1,-196.1,171.7,-180.8Z" fill="#abb8c3" />
  </g>
</svg>
  